{
    "asset" : {
        "generator" : "Khronos glTF Blender I/O v1.5.17",
        "version" : "2.0"
    },
    "scene" : 0,
    "scenes" : [
        {
            "name" : "Scene",
            "nodes" : [
                0,
                1,
                2,
                3,
                4,
                5,
                6,
                7,
                8,
                9,
                10,
                11
            ]
        }
    ],
    "nodes" : [
        {
            "mesh" : 0,
            "name" : "Cube",
            "scale" : [
                0.23950126767158508,
                0.13617949187755585,
                0.15557923913002014
            ],
            "translation" : [
                -0.006229471415281296,
                -0.20047669112682343,
                -1.2335119247436523
            ]
        },
        {
            "name" : "Light",
            "rotation" : [
                0.16907575726509094,
                0.7558803558349609,
                -0.27217137813568115,
                0.570947527885437
            ],
            "translation" : [
                4.076245307922363,
                5.903861999511719,
                -1.0054539442062378
            ]
        },
        {
            "name" : "Camera",
            "rotation" : [
                0.483536034822464,
                0.33687159419059753,
                -0.20870360732078552,
                0.7804827094078064
            ],
            "translation" : [
                7.358891487121582,
                4.958309173583984,
                6.925790786743164
            ]
        },
        {
            "mesh" : 1,
            "name" : "Cylinder.002",
            "rotation" : [
                0,
                0.7071068286895752,
                0.7071068286895752,
                -1.461109633282831e-07
            ],
            "scale" : [
                0.14680127799510956,
                1.2530295848846436,
                0.15087494254112244
            ],
            "translation" : [
                -0.13489575684070587,
                -0.05691199749708176,
                0
            ]
        },
        {
            "mesh" : 2,
            "name" : "Cylinder.003",
            "rotation" : [
                0,
                0.7071068286895752,
                0.7071068286895752,
                -1.461109633282831e-07
            ],
            "scale" : [
                0.14680127799510956,
                1.2530295848846436,
                0.15087494254112244
            ],
            "translation" : [
                0.13389801979064941,
                -0.05691199749708176,
                0
            ]
        },
        {
            "name" : "Empty",
            "rotation" : [
                0.49485355615615845,
                -0.5054473280906677,
                0.4993448853492737,
                0.5002975463867188
            ],
            "translation" : [
                1.798111081123352,
                -0.6994709968566895,
                1.006317138671875
            ]
        },
        {
            "mesh" : 3,
            "name" : "Cube.001",
            "scale" : [
                0.26503288745880127,
                0.22113563120365143,
                0.26503288745880127
            ],
            "translation" : [
                0,
                -0.31004196405410767,
                -1.7250982522964478
            ]
        },
        {
            "mesh" : 4,
            "name" : "Cylinder",
            "rotation" : [
                0.5040220618247986,
                -0.5040324330329895,
                0.49594247341156006,
                -0.49593761563301086
            ],
            "scale" : [
                -0.03423137962818146,
                -0.053399305790662766,
                -0.03423639014363289
            ],
            "translation" : [
                -0.08847856521606445,
                -0.5825530886650085,
                1.424770474433899
            ]
        },
        {
            "mesh" : 5,
            "name" : "Cube.002",
            "rotation" : [
                -0.08791441470384598,
                0,
                0,
                0.9961280226707458
            ],
            "scale" : [
                0.053031064569950104,
                0.04441612958908081,
                0.34496593475341797
            ],
            "translation" : [
                0.0021878499537706375,
                -0.06830824911594391,
                -1.5170891284942627
            ]
        },
        {
            "mesh" : 6,
            "name" : "Cube.003",
            "rotation" : [
                0.33848461508750916,
                0,
                0,
                0.9409720301628113
            ],
            "scale" : [
                0.03883209079504013,
                0.18162095546722412,
                0.048509757965803146
            ],
            "translation" : [
                0.007200390100479126,
                -0.7702451944351196,
                -2.1664319038391113
            ]
        },
        {
            "mesh" : 7,
            "name" : "Cube.004",
            "scale" : [
                0.016120845451951027,
                0.1191769540309906,
                0.03516748547554016
            ],
            "translation" : [
                -0.005332008004188538,
                -0.7093625068664551,
                -1.835763692855835
            ]
        },
        {
            "name" : "Sun",
            "rotation" : [
                0.1137102022767067,
                0,
                0.6443188190460205,
                0.7562560439109802
            ],
            "translation" : [
                -2.607020378112793,
                -0.05694352090358734,
                0.07249200344085693
            ]
        }
    ],
    "materials" : [
        {
            "doubleSided" : true,
            "name" : "iron",
            "pbrMetallicRoughness" : {
                "baseColorFactor" : [
                    0.07658004760742188,
                    0.07658004760742188,
                    0.07658004760742188,
                    1
                ],
                "metallicFactor" : 0,
                "roughnessFactor" : 0.2647058963775635
            }
        },
        {
            "doubleSided" : true,
            "name" : "wood",
            "pbrMetallicRoughness" : {
                "baseColorFactor" : [
                    0.17335551977157593,
                    0.05277493596076965,
                    0.004420177545398474,
                    1
                ],
                "metallicFactor" : 0,
                "roughnessFactor" : 0.7352941036224365
            }
        }
    ],
    "meshes" : [
        {
            "name" : "Cube",
            "primitives" : [
                {
                    "attributes" : {
                        "POSITION" : 0,
                        "NORMAL" : 1,
                        "TEXCOORD_0" : 2
                    },
                    "indices" : 3,
                    "material" : 0
                },
                {
                    "attributes" : {
                        "POSITION" : 4,
                        "NORMAL" : 5,
                        "TEXCOORD_0" : 6
                    },
                    "indices" : 7,
                    "material" : 1
                }
            ]
        },
        {
            "name" : "Cylinder.002",
            "primitives" : [
                {
                    "attributes" : {
                        "POSITION" : 8,
                        "NORMAL" : 9,
                        "TEXCOORD_0" : 10
                    },
                    "indices" : 11,
                    "material" : 0
                }
            ]
        },
        {
            "name" : "Cylinder.003",
            "primitives" : [
                {
                    "attributes" : {
                        "POSITION" : 12,
                        "NORMAL" : 13,
                        "TEXCOORD_0" : 14
                    },
                    "indices" : 15,
                    "material" : 0
                }
            ]
        },
        {
            "name" : "Cube.002",
            "primitives" : [
                {
                    "attributes" : {
                        "POSITION" : 16,
                        "NORMAL" : 17,
                        "TEXCOORD_0" : 18
                    },
                    "indices" : 19,
                    "material" : 1
                }
            ]
        },
        {
            "name" : "Cylinder",
            "primitives" : [
                {
                    "attributes" : {
                        "POSITION" : 20,
                        "NORMAL" : 21,
                        "TEXCOORD_0" : 22
                    },
                    "indices" : 23,
                    "material" : 0
                }
            ]
        },
        {
            "name" : "Cube.001",
            "primitives" : [
                {
                    "attributes" : {
                        "POSITION" : 24,
                        "NORMAL" : 25,
                        "TEXCOORD_0" : 26
                    },
                    "indices" : 27,
                    "material" : 0
                }
            ]
        },
        {
            "name" : "Cube.003",
            "primitives" : [
                {
                    "attributes" : {
                        "POSITION" : 28,
                        "NORMAL" : 29,
                        "TEXCOORD_0" : 30
                    },
                    "indices" : 31,
                    "material" : 0
                }
            ]
        },
        {
            "name" : "Cube.004",
            "primitives" : [
                {
                    "attributes" : {
                        "POSITION" : 32,
                        "NORMAL" : 33,
                        "TEXCOORD_0" : 34
                    },
                    "indices" : 35,
                    "material" : 0
                }
            ]
        }
    ],
    "accessors" : [
        {
            "bufferView" : 0,
            "componentType" : 5126,
            "count" : 398,
            "max" : [
                0.9999999403953552,
                1.1083898544311523,
                4.707129955291748
            ],
            "min" : [
                -0.9999999403953552,
                -2.4297220706939697,
                -1.4697617292404175
            ],
            "type" : "VEC3"
        },
        {
            "bufferView" : 1,
            "componentType" : 5126,
            "count" : 398,
            "type" : "VEC3"
        },
        {
            "bufferView" : 2,
            "componentType" : 5126,
            "count" : 398,
            "type" : "VEC2"
        },
        {
            "bufferView" : 3,
            "componentType" : 5123,
            "count" : 666,
            "type" : "SCALAR"
        },
        {
            "bufferView" : 4,
            "componentType" : 5126,
            "count" : 200,
            "max" : [
                0.9999998807907104,
                0.14726729691028595,
                16.40314292907715
            ],
            "min" : [
                -0.9999998807907104,
                -1.7367517948150635,
                4.371148109436035
            ],
            "type" : "VEC3"
        },
        {
            "bufferView" : 5,
            "componentType" : 5126,
            "count" : 200,
            "type" : "VEC3"
        },
        {
            "bufferView" : 6,
            "componentType" : 5126,
            "count" : 200,
            "type" : "VEC2"
        },
        {
            "bufferView" : 7,
            "componentType" : 5123,
            "count" : 306,
            "type" : "SCALAR"
        },
        {
            "bufferView" : 8,
            "componentType" : 5126,
            "count" : 25619,
            "max" : [
                1.000000238418579,
                1.3963994979858398,
                1.0000001192092896
            ],
            "min" : [
                -1,
                -1,
                -1
            ],
            "type" : "VEC3"
        },
        {
            "bufferView" : 9,
            "componentType" : 5126,
            "count" : 25619,
            "type" : "VEC3"
        },
        {
            "bufferView" : 10,
            "componentType" : 5126,
            "count" : 25619,
            "type" : "VEC2"
        },
        {
            "bufferView" : 11,
            "componentType" : 5123,
            "count" : 38772,
            "type" : "SCALAR"
        },
        {
            "bufferView" : 12,
            "componentType" : 5126,
            "count" : 25617,
            "max" : [
                1.000000238418579,
                1.3971160650253296,
                1.0000001192092896
            ],
            "min" : [
                -1,
                -1,
                -1
            ],
            "type" : "VEC3"
        },
        {
            "bufferView" : 13,
            "componentType" : 5126,
            "count" : 25617,
            "type" : "VEC3"
        },
        {
            "bufferView" : 14,
            "componentType" : 5126,
            "count" : 25617,
            "type" : "VEC2"
        },
        {
            "bufferView" : 15,
            "componentType" : 5123,
            "count" : 38772,
            "type" : "SCALAR"
        },
        {
            "bufferView" : 16,
            "componentType" : 5126,
            "count" : 170,
            "max" : [
                1,
                1.0006344318389893,
                1.0035576820373535
            ],
            "min" : [
                -1,
                -5.531020164489746,
                -3.7289750576019287
            ],
            "type" : "VEC3"
        },
        {
            "bufferView" : 17,
            "componentType" : 5126,
            "count" : 170,
            "type" : "VEC3"
        },
        {
            "bufferView" : 18,
            "componentType" : 5126,
            "count" : 170,
            "type" : "VEC2"
        },
        {
            "bufferView" : 19,
            "componentType" : 5123,
            "count" : 276,
            "type" : "SCALAR"
        },
        {
            "bufferView" : 20,
            "componentType" : 5126,
            "count" : 320,
            "max" : [
                12.064617156982422,
                0.16770750284194946,
                -0.9164837002754211
            ],
            "min" : [
                8.910205841064453,
                -2.4446537494659424,
                -4.070897102355957
            ],
            "type" : "VEC3"
        },
        {
            "bufferView" : 21,
            "componentType" : 5126,
            "count" : 320,
            "type" : "VEC3"
        },
        {
            "bufferView" : 22,
            "componentType" : 5126,
            "count" : 320,
            "type" : "VEC2"
        },
        {
            "bufferView" : 23,
            "componentType" : 5123,
            "count" : 564,
            "type" : "SCALAR"
        },
        {
            "bufferView" : 24,
            "componentType" : 5126,
            "count" : 300,
            "max" : [
                0.8009881973266602,
                0.8343804478645325,
                1.6266180276870728
            ],
            "min" : [
                -0.8009882569313049,
                -2.1482014656066895,
                -0.9005926847457886
            ],
            "type" : "VEC3"
        },
        {
            "bufferView" : 25,
            "componentType" : 5126,
            "count" : 300,
            "type" : "VEC3"
        },
        {
            "bufferView" : 26,
            "componentType" : 5126,
            "count" : 300,
            "type" : "VEC2"
        },
        {
            "bufferView" : 27,
            "componentType" : 5123,
            "count" : 480,
            "type" : "SCALAR"
        },
        {
            "bufferView" : 28,
            "componentType" : 5126,
            "count" : 182,
            "max" : [
                0.7476598620414734,
                3.6047496795654297,
                13.25197696685791
            ],
            "min" : [
                -0.7476595044136047,
                -1.000000238418579,
                -1.0000009536743164
            ],
            "type" : "VEC3"
        },
        {
            "bufferView" : 29,
            "componentType" : 5126,
            "count" : 182,
            "type" : "VEC3"
        },
        {
            "bufferView" : 30,
            "componentType" : 5126,
            "count" : 182,
            "type" : "VEC2"
        },
        {
            "bufferView" : 31,
            "componentType" : 5123,
            "count" : 300,
            "type" : "SCALAR"
        },
        {
            "bufferView" : 32,
            "componentType" : 5126,
            "count" : 54,
            "max" : [
                1,
                1.0335817337036133,
                2.2063539028167725
            ],
            "min" : [
                -1,
                -1.328399658203125,
                -1.027437448501587
            ],
            "type" : "VEC3"
        },
        {
            "bufferView" : 33,
            "componentType" : 5126,
            "count" : 54,
            "type" : "VEC3"
        },
        {
            "bufferView" : 34,
            "componentType" : 5126,
            "count" : 54,
            "type" : "VEC2"
        },
        {
            "bufferView" : 35,
            "componentType" : 5123,
            "count" : 84,
            "type" : "SCALAR"
        }
    ],
    "bufferViews" : [
        {
            "buffer" : 0,
            "byteLength" : 4776,
            "byteOffset" : 0
        },
        {
            "buffer" : 0,
            "byteLength" : 4776,
            "byteOffset" : 4776
        },
        {
            "buffer" : 0,
            "byteLength" : 3184,
            "byteOffset" : 9552
        },
        {
            "buffer" : 0,
            "byteLength" : 1332,
            "byteOffset" : 12736
        },
        {
            "buffer" : 0,
            "byteLength" : 2400,
            "byteOffset" : 14068
        },
        {
            "buffer" : 0,
            "byteLength" : 2400,
            "byteOffset" : 16468
        },
        {
            "buffer" : 0,
            "byteLength" : 1600,
            "byteOffset" : 18868
        },
        {
            "buffer" : 0,
            "byteLength" : 612,
            "byteOffset" : 20468
        },
        {
            "buffer" : 0,
            "byteLength" : 307428,
            "byteOffset" : 21080
        },
        {
            "buffer" : 0,
            "byteLength" : 307428,
            "byteOffset" : 328508
        },
        {
            "buffer" : 0,
            "byteLength" : 204952,
            "byteOffset" : 635936
        },
        {
            "buffer" : 0,
            "byteLength" : 77544,
            "byteOffset" : 840888
        },
        {
            "buffer" : 0,
            "byteLength" : 307404,
            "byteOffset" : 918432
        },
        {
            "buffer" : 0,
            "byteLength" : 307404,
            "byteOffset" : 1225836
        },
        {
            "buffer" : 0,
            "byteLength" : 204936,
            "byteOffset" : 1533240
        },
        {
            "buffer" : 0,
            "byteLength" : 77544,
            "byteOffset" : 1738176
        },
        {
            "buffer" : 0,
            "byteLength" : 2040,
            "byteOffset" : 1815720
        },
        {
            "buffer" : 0,
            "byteLength" : 2040,
            "byteOffset" : 1817760
        },
        {
            "buffer" : 0,
            "byteLength" : 1360,
            "byteOffset" : 1819800
        },
        {
            "buffer" : 0,
            "byteLength" : 552,
            "byteOffset" : 1821160
        },
        {
            "buffer" : 0,
            "byteLength" : 3840,
            "byteOffset" : 1821712
        },
        {
            "buffer" : 0,
            "byteLength" : 3840,
            "byteOffset" : 1825552
        },
        {
            "buffer" : 0,
            "byteLength" : 2560,
            "byteOffset" : 1829392
        },
        {
            "buffer" : 0,
            "byteLength" : 1128,
            "byteOffset" : 1831952
        },
        {
            "buffer" : 0,
            "byteLength" : 3600,
            "byteOffset" : 1833080
        },
        {
            "buffer" : 0,
            "byteLength" : 3600,
            "byteOffset" : 1836680
        },
        {
            "buffer" : 0,
            "byteLength" : 2400,
            "byteOffset" : 1840280
        },
        {
            "buffer" : 0,
            "byteLength" : 960,
            "byteOffset" : 1842680
        },
        {
            "buffer" : 0,
            "byteLength" : 2184,
            "byteOffset" : 1843640
        },
        {
            "buffer" : 0,
            "byteLength" : 2184,
            "byteOffset" : 1845824
        },
        {
            "buffer" : 0,
            "byteLength" : 1456,
            "byteOffset" : 1848008
        },
        {
            "buffer" : 0,
            "byteLength" : 600,
            "byteOffset" : 1849464
        },
        {
            "buffer" : 0,
            "byteLength" : 648,
            "byteOffset" : 1850064
        },
        {
            "buffer" : 0,
            "byteLength" : 648,
            "byteOffset" : 1850712
        },
        {
            "buffer" : 0,
            "byteLength" : 432,
            "byteOffset" : 1851360
        },
        {
            "buffer" : 0,
            "byteLength" : 168,
            "byteOffset" : 1851792
        }
    ],
    "buffers" : [
        {
            "byteLength" : 1851960,
            "uri" : "data:application/octet-stream;base64,"
        }
    ]
}
