{
    "asset" : {
        "generator" : "Khronos glTF Blender I/O v1.5.17",
        "version" : "2.0"
    },
    "scene" : 0,
    "scenes" : [
        {
            "name" : "Scene",
            "nodes" : [
                0,
                1,
                2,
                3,
                4,
                5,
                6,
                7,
                8
            ]
        }
    ],
    "nodes" : [
        {
            "mesh" : 0,
            "name" : "Cube"
        },
        {
            "name" : "Light",
            "rotation" : [
                0.16907575726509094,
                0.7558803558349609,
                -0.27217137813568115,
                0.570947527885437
            ],
            "translation" : [
                4.076245307922363,
                5.903861999511719,
                -1.0054539442062378
            ]
        },
        {
            "name" : "Camera",
            "rotation" : [
                0.483536034822464,
                0.33687159419059753,
                -0.20870360732078552,
                0.7804827094078064
            ],
            "translation" : [
                7.358891487121582,
                4.958309173583984,
                6.925790786743164
            ]
        },
        {
            "name" : "Empty",
            "rotation" : [
                0.7071068286895752,
                0,
                0,
                0.7071068286895752
            ],
            "translation" : [
                5.474682331085205,
                0,
                0
            ]
        },
        {
            "mesh" : 1,
            "name" : "Cube.001",
            "scale" : [
                0.3239503800868988,
                0.3239503800868988,
                0.4699479639530182
            ],
            "translation" : [
                0,
                1.646532416343689,
                0
            ]
        },
        {
            "mesh" : 2,
            "name" : "Cube.002",
            "scale" : [
                0.14666041731834412,
                0.2102295309305191,
                0.14666041731834412
            ],
            "translation" : [
                -0.6526311635971069,
                0.09048008173704147,
                0.0035240687429904938
            ]
        },
        {
            "mesh" : 3,
            "name" : "Cube.003",
            "scale" : [
                0.3707520365715027,
                0.7865703105926514,
                0.31501638889312744
            ],
            "translation" : [
                -1.6981898546218872,
                -1.0155073404312134,
                0
            ]
        },
        {
            "mesh" : 4,
            "name" : "Cylinder",
            "rotation" : [
                0,
                0,
                -0.7071067690849304,
                0.7071068286895752
            ],
            "scale" : [
                0.14597254991531372,
                0.14597254991531372,
                0.14597254991531372
            ],
            "translation" : [
                2.318511724472046,
                1.3866959810256958,
                0
            ]
        },
        {
            "mesh" : 5,
            "name" : "Cylinder.001",
            "rotation" : [
                0,
                0,
                -0.7071067690849304,
                0.7071068286895752
            ],
            "scale" : [
                0.09385490417480469,
                0.09385490417480469,
                0.09385490417480469
            ],
            "translation" : [
                2.8511810302734375,
                0.9914779663085938,
                0
            ]
        }
    ],
    "materials" : [
        {
            "doubleSided" : true,
            "name" : "black",
            "pbrMetallicRoughness" : {
                "baseColorFactor" : [
                    0.09083804488182068,
                    0.09083804488182068,
                    0.09083804488182068,
                    1
                ],
                "metallicFactor" : 0,
                "roughnessFactor" : 0.5073529481887817
            }
        },
        {
            "doubleSided" : true,
            "name" : "metal",
            "pbrMetallicRoughness" : {
                "metallicFactor" : 0,
                "roughnessFactor" : 0.15000000596046448
            }
        },
        {
            "doubleSided" : true,
            "name" : "black.001",
            "pbrMetallicRoughness" : {
                "baseColorFactor" : [
                    0.10247349739074707,
                    0.10247349739074707,
                    0.10247349739074707,
                    1
                ],
                "metallicFactor" : 0,
                "roughnessFactor" : 0.41911762952804565
            }
        }
    ],
    "meshes" : [
        {
            "name" : "Cube",
            "primitives" : [
                {
                    "attributes" : {
                        "POSITION" : 0,
                        "NORMAL" : 1,
                        "TEXCOORD_0" : 2
                    },
                    "indices" : 3,
                    "material" : 0
                }
            ]
        },
        {
            "name" : "Cube.001",
            "primitives" : [
                {
                    "attributes" : {
                        "POSITION" : 4,
                        "NORMAL" : 5,
                        "TEXCOORD_0" : 6
                    },
                    "indices" : 7,
                    "material" : 1
                },
                {
                    "attributes" : {
                        "POSITION" : 8,
                        "NORMAL" : 9,
                        "TEXCOORD_0" : 10
                    },
                    "indices" : 11,
                    "material" : 2
                }
            ]
        },
        {
            "name" : "Cube.002",
            "primitives" : [
                {
                    "attributes" : {
                        "POSITION" : 12,
                        "NORMAL" : 13,
                        "TEXCOORD_0" : 14
                    },
                    "indices" : 15,
                    "material" : 0
                }
            ]
        },
        {
            "name" : "Cube.003",
            "primitives" : [
                {
                    "attributes" : {
                        "POSITION" : 16,
                        "NORMAL" : 17,
                        "TEXCOORD_0" : 18
                    },
                    "indices" : 19,
                    "material" : 1
                }
            ]
        },
        {
            "name" : "Cylinder",
            "primitives" : [
                {
                    "attributes" : {
                        "POSITION" : 20,
                        "NORMAL" : 21,
                        "TEXCOORD_0" : 22
                    },
                    "indices" : 23,
                    "material" : 2
                }
            ]
        },
        {
            "name" : "Cylinder.001",
            "primitives" : [
                {
                    "attributes" : {
                        "POSITION" : 24,
                        "NORMAL" : 25,
                        "TEXCOORD_0" : 26
                    },
                    "indices" : 27,
                    "material" : 1
                }
            ]
        }
    ],
    "accessors" : [
        {
            "bufferView" : 0,
            "componentType" : 5126,
            "count" : 10504,
            "max" : [
                2.385124444961548,
                1.2010771036148071,
                0.49977853894233704
            ],
            "min" : [
                -2.372699737548828,
                -1.7760564088821411,
                -0.49977853894233704
            ],
            "type" : "VEC3"
        },
        {
            "bufferView" : 1,
            "componentType" : 5126,
            "count" : 10504,
            "type" : "VEC3"
        },
        {
            "bufferView" : 2,
            "componentType" : 5126,
            "count" : 10504,
            "type" : "VEC2"
        },
        {
            "bufferView" : 3,
            "componentType" : 5123,
            "count" : 16308,
            "type" : "SCALAR"
        },
        {
            "bufferView" : 4,
            "componentType" : 5126,
            "count" : 2121,
            "max" : [
                7.361395835876465,
                0.32632577419281006,
                0.9931562542915344
            ],
            "min" : [
                -6.896152019500732,
                -1.6167733669281006,
                -0.9931562542915344
            ],
            "type" : "VEC3"
        },
        {
            "bufferView" : 5,
            "componentType" : 5126,
            "count" : 2121,
            "type" : "VEC3"
        },
        {
            "bufferView" : 6,
            "componentType" : 5126,
            "count" : 2121,
            "type" : "VEC2"
        },
        {
            "bufferView" : 7,
            "componentType" : 5123,
            "count" : 3696,
            "type" : "SCALAR"
        },
        {
            "bufferView" : 8,
            "componentType" : 5126,
            "count" : 1337,
            "max" : [
                6.937328338623047,
                0.32632577419281006,
                0.9931562542915344
            ],
            "min" : [
                -6.365574836730957,
                -1.6124976873397827,
                -0.9931562542915344
            ],
            "type" : "VEC3"
        },
        {
            "bufferView" : 9,
            "componentType" : 5126,
            "count" : 1337,
            "type" : "VEC3"
        },
        {
            "bufferView" : 10,
            "componentType" : 5126,
            "count" : 1337,
            "type" : "VEC2"
        },
        {
            "bufferView" : 11,
            "componentType" : 5123,
            "count" : 2250,
            "type" : "SCALAR"
        },
        {
            "bufferView" : 12,
            "componentType" : 5126,
            "count" : 15360,
            "max" : [
                11.086112022399902,
                2.7995574474334717,
                1.0781644582748413
            ],
            "min" : [
                -0.9306707382202148,
                -1.4961087703704834,
                -0.9856452941894531
            ],
            "type" : "VEC3"
        },
        {
            "bufferView" : 13,
            "componentType" : 5126,
            "count" : 15360,
            "type" : "VEC3"
        },
        {
            "bufferView" : 14,
            "componentType" : 5126,
            "count" : 15360,
            "type" : "VEC2"
        },
        {
            "bufferView" : 15,
            "componentType" : 5123,
            "count" : 23040,
            "type" : "SCALAR"
        },
        {
            "bufferView" : 16,
            "componentType" : 5126,
            "count" : 448,
            "max" : [
                1.353501319885254,
                1.0437207221984863,
                1.0583420991897583
            ],
            "min" : [
                -1.3152319192886353,
                -1.1590046882629395,
                -1.0583420991897583
            ],
            "type" : "VEC3"
        },
        {
            "bufferView" : 17,
            "componentType" : 5126,
            "count" : 448,
            "type" : "VEC3"
        },
        {
            "bufferView" : 18,
            "componentType" : 5126,
            "count" : 448,
            "type" : "VEC2"
        },
        {
            "bufferView" : 19,
            "componentType" : 5123,
            "count" : 804,
            "type" : "SCALAR"
        },
        {
            "bufferView" : 20,
            "componentType" : 5126,
            "count" : 740,
            "max" : [
                1.1263527870178223,
                0.9509685039520264,
                1.2609450817108154
            ],
            "min" : [
                -1.395538568496704,
                -17.66490364074707,
                -1.2609450817108154
            ],
            "type" : "VEC3"
        },
        {
            "bufferView" : 21,
            "componentType" : 5126,
            "count" : 740,
            "type" : "VEC3"
        },
        {
            "bufferView" : 22,
            "componentType" : 5126,
            "count" : 740,
            "type" : "VEC2"
        },
        {
            "bufferView" : 23,
            "componentType" : 5123,
            "count" : 1332,
            "type" : "SCALAR"
        },
        {
            "bufferView" : 24,
            "componentType" : 5126,
            "count" : 668,
            "max" : [
                0.9999995827674866,
                -4.4724650382995605,
                1
            ],
            "min" : [
                -1.0000022649765015,
                -31.113481521606445,
                -1
            ],
            "type" : "VEC3"
        },
        {
            "bufferView" : 25,
            "componentType" : 5126,
            "count" : 668,
            "type" : "VEC3"
        },
        {
            "bufferView" : 26,
            "componentType" : 5126,
            "count" : 668,
            "type" : "VEC2"
        },
        {
            "bufferView" : 27,
            "componentType" : 5123,
            "count" : 1140,
            "type" : "SCALAR"
        }
    ],
    "bufferViews" : [
        {
            "buffer" : 0,
            "byteLength" : 126048,
            "byteOffset" : 0
        },
        {
            "buffer" : 0,
            "byteLength" : 126048,
            "byteOffset" : 126048
        },
        {
            "buffer" : 0,
            "byteLength" : 84032,
            "byteOffset" : 252096
        },
        {
            "buffer" : 0,
            "byteLength" : 32616,
            "byteOffset" : 336128
        },
        {
            "buffer" : 0,
            "byteLength" : 25452,
            "byteOffset" : 368744
        },
        {
            "buffer" : 0,
            "byteLength" : 25452,
            "byteOffset" : 394196
        },
        {
            "buffer" : 0,
            "byteLength" : 16968,
            "byteOffset" : 419648
        },
        {
            "buffer" : 0,
            "byteLength" : 7392,
            "byteOffset" : 436616
        },
        {
            "buffer" : 0,
            "byteLength" : 16044,
            "byteOffset" : 444008
        },
        {
            "buffer" : 0,
            "byteLength" : 16044,
            "byteOffset" : 460052
        },
        {
            "buffer" : 0,
            "byteLength" : 10696,
            "byteOffset" : 476096
        },
        {
            "buffer" : 0,
            "byteLength" : 4500,
            "byteOffset" : 486792
        },
        {
            "buffer" : 0,
            "byteLength" : 184320,
            "byteOffset" : 491292
        },
        {
            "buffer" : 0,
            "byteLength" : 184320,
            "byteOffset" : 675612
        },
        {
            "buffer" : 0,
            "byteLength" : 122880,
            "byteOffset" : 859932
        },
        {
            "buffer" : 0,
            "byteLength" : 46080,
            "byteOffset" : 982812
        },
        {
            "buffer" : 0,
            "byteLength" : 5376,
            "byteOffset" : 1028892
        },
        {
            "buffer" : 0,
            "byteLength" : 5376,
            "byteOffset" : 1034268
        },
        {
            "buffer" : 0,
            "byteLength" : 3584,
            "byteOffset" : 1039644
        },
        {
            "buffer" : 0,
            "byteLength" : 1608,
            "byteOffset" : 1043228
        },
        {
            "buffer" : 0,
            "byteLength" : 8880,
            "byteOffset" : 1044836
        },
        {
            "buffer" : 0,
            "byteLength" : 8880,
            "byteOffset" : 1053716
        },
        {
            "buffer" : 0,
            "byteLength" : 5920,
            "byteOffset" : 1062596
        },
        {
            "buffer" : 0,
            "byteLength" : 2664,
            "byteOffset" : 1068516
        },
        {
            "buffer" : 0,
            "byteLength" : 8016,
            "byteOffset" : 1071180
        },
        {
            "buffer" : 0,
            "byteLength" : 8016,
            "byteOffset" : 1079196
        },
        {
            "buffer" : 0,
            "byteLength" : 5344,
            "byteOffset" : 1087212
        },
        {
            "buffer" : 0,
            "byteLength" : 2280,
            "byteOffset" : 1092556
        }
    ],
    "buffers" : [
        {
            "byteLength" : 1094836,
            "uri" : "data:application/octet-stream;base64,"
        }
    ]
}
