{
    "asset" : {
        "generator" : "Khronos glTF Blender I/O v1.5.17",
        "version" : "2.0"
    },
    "scene" : 0,
    "scenes" : [
        {
            "name" : "Scene",
            "nodes" : [
                0,
                1,
                2,
                3,
                4
            ]
        }
    ],
    "nodes" : [
        {
            "mesh" : 0,
            "name" : "Cube",
            "translation" : [
                0,
                0.15825094282627106,
                0
            ]
        },
        {
            "name" : "Light",
            "rotation" : [
                0.16907575726509094,
                0.7558803558349609,
                -0.27217137813568115,
                0.570947527885437
            ],
            "translation" : [
                4.076245307922363,
                5.903861999511719,
                -1.0054539442062378
            ]
        },
        {
            "name" : "Camera",
            "rotation" : [
                0.483536034822464,
                0.33687159419059753,
                -0.20870360732078552,
                0.7804827094078064
            ],
            "translation" : [
                7.358891487121582,
                4.958309173583984,
                6.925790786743164
            ]
        },
        {
            "mesh" : 1,
            "name" : "Cylinder",
            "rotation" : [
                -0.49999746680259705,
                -0.5000011920928955,
                -0.5000025629997253,
                -0.4999988079071045
            ],
            "scale" : [
                0.31106340885162354,
                0.8914058208465576,
                0.5930963754653931
            ],
            "translation" : [
                0.593096911907196,
                0.9439467191696167,
                0
            ]
        },
        {
            "name" : "Point",
            "translation" : [
                -1.8342697620391846,
                0.46271562576293945,
                -0.1817646026611328
            ]
        }
    ],
    "animations" : [
        {
            "channels" : [
                {
                    "sampler" : 0,
                    "target" : {
                        "node" : 3,
                        "path" : "translation"
                    }
                },
                {
                    "sampler" : 1,
                    "target" : {
                        "node" : 3,
                        "path" : "rotation"
                    }
                },
                {
                    "sampler" : 2,
                    "target" : {
                        "node" : 3,
                        "path" : "scale"
                    }
                }
            ],
            "name" : "ChestOpen",
            "samplers" : [
                {
                    "input" : 16,
                    "interpolation" : "LINEAR",
                    "output" : 17
                },
                {
                    "input" : 16,
                    "interpolation" : "LINEAR",
                    "output" : 18
                },
                {
                    "input" : 16,
                    "interpolation" : "LINEAR",
                    "output" : 19
                }
            ]
        }
    ],
    "materials" : [
        {
            "doubleSided" : true,
            "name" : "wood",
            "pbrMetallicRoughness" : {
                "baseColorFactor" : [
                    0.24619360268115997,
                    0.05486297979950905,
                    0.016400059685111046,
                    1
                ],
                "metallicFactor" : 0,
                "roughnessFactor" : 0.3503401279449463
            }
        },
        {
            "doubleSided" : true,
            "name" : "iron",
            "pbrMetallicRoughness" : {
                "baseColorFactor" : [
                    0.02364998497068882,
                    0.02364998497068882,
                    0.02364998497068882,
                    1
                ],
                "metallicFactor" : 0,
                "roughnessFactor" : 0.22448979318141937
            }
        }
    ],
    "meshes" : [
        {
            "name" : "Cube",
            "primitives" : [
                {
                    "attributes" : {
                        "POSITION" : 0,
                        "NORMAL" : 1,
                        "TEXCOORD_0" : 2
                    },
                    "indices" : 3,
                    "material" : 0
                },
                {
                    "attributes" : {
                        "POSITION" : 4,
                        "NORMAL" : 5,
                        "TEXCOORD_0" : 6
                    },
                    "indices" : 7,
                    "material" : 1
                }
            ]
        },
        {
            "name" : "Cylinder",
            "primitives" : [
                {
                    "attributes" : {
                        "POSITION" : 8,
                        "NORMAL" : 9,
                        "TEXCOORD_0" : 10
                    },
                    "indices" : 11,
                    "material" : 0
                },
                {
                    "attributes" : {
                        "POSITION" : 12,
                        "NORMAL" : 13,
                        "TEXCOORD_0" : 14
                    },
                    "indices" : 15,
                    "material" : 1
                }
            ]
        }
    ],
    "accessors" : [
        {
            "bufferView" : 0,
            "componentType" : 5126,
            "count" : 2413,
            "max" : [
                0.6234338879585266,
                0.8154808282852173,
                0.9132754802703857
            ],
            "min" : [
                -0.6216355562210083,
                -0.1526375412940979,
                -0.917833149433136
            ],
            "type" : "VEC3"
        },
        {
            "bufferView" : 1,
            "componentType" : 5126,
            "count" : 2413,
            "type" : "VEC3"
        },
        {
            "bufferView" : 2,
            "componentType" : 5126,
            "count" : 2413,
            "type" : "VEC2"
        },
        {
            "bufferView" : 3,
            "componentType" : 5123,
            "count" : 4086,
            "type" : "SCALAR"
        },
        {
            "bufferView" : 4,
            "componentType" : 5126,
            "count" : 880,
            "max" : [
                0.6234338879585266,
                0.8154808282852173,
                0.9132754802703857
            ],
            "min" : [
                -0.6216355562210083,
                -0.1526375412940979,
                -0.917833149433136
            ],
            "type" : "VEC3"
        },
        {
            "bufferView" : 5,
            "componentType" : 5126,
            "count" : 880,
            "type" : "VEC3"
        },
        {
            "bufferView" : 6,
            "componentType" : 5126,
            "count" : 880,
            "type" : "VEC2"
        },
        {
            "bufferView" : 7,
            "componentType" : 5123,
            "count" : 1422,
            "type" : "SCALAR"
        },
        {
            "bufferView" : 8,
            "componentType" : 5126,
            "count" : 3276,
            "max" : [
                1.050984501838684,
                1,
                0.05074012279510498
            ],
            "min" : [
                -0.0035301214084029198,
                -0.9999999403953552,
                -2.0507402420043945
            ],
            "type" : "VEC3"
        },
        {
            "bufferView" : 9,
            "componentType" : 5126,
            "count" : 3276,
            "type" : "VEC3"
        },
        {
            "bufferView" : 10,
            "componentType" : 5126,
            "count" : 3276,
            "type" : "VEC2"
        },
        {
            "bufferView" : 11,
            "componentType" : 5123,
            "count" : 5016,
            "type" : "SCALAR"
        },
        {
            "bufferView" : 12,
            "componentType" : 5126,
            "count" : 320,
            "max" : [
                1.050984501838684,
                0.6817854046821594,
                0.05074012279510498
            ],
            "min" : [
                0.004995954222977161,
                -0.6817852854728699,
                -2.0507402420043945
            ],
            "type" : "VEC3"
        },
        {
            "bufferView" : 13,
            "componentType" : 5126,
            "count" : 320,
            "type" : "VEC3"
        },
        {
            "bufferView" : 14,
            "componentType" : 5126,
            "count" : 320,
            "type" : "VEC2"
        },
        {
            "bufferView" : 15,
            "componentType" : 5123,
            "count" : 480,
            "type" : "SCALAR"
        },
        {
            "bufferView" : 16,
            "componentType" : 5126,
            "count" : 15,
            "max" : [
                0.625
            ],
            "min" : [
                0.041666666666666664
            ],
            "type" : "SCALAR"
        },
        {
            "bufferView" : 17,
            "componentType" : 5126,
            "count" : 15,
            "type" : "VEC3"
        },
        {
            "bufferView" : 18,
            "componentType" : 5126,
            "count" : 15,
            "type" : "VEC4"
        },
        {
            "bufferView" : 19,
            "componentType" : 5126,
            "count" : 15,
            "type" : "VEC3"
        }
    ],
    "bufferViews" : [
        {
            "buffer" : 0,
            "byteLength" : 28956,
            "byteOffset" : 0
        },
        {
            "buffer" : 0,
            "byteLength" : 28956,
            "byteOffset" : 28956
        },
        {
            "buffer" : 0,
            "byteLength" : 19304,
            "byteOffset" : 57912
        },
        {
            "buffer" : 0,
            "byteLength" : 8172,
            "byteOffset" : 77216
        },
        {
            "buffer" : 0,
            "byteLength" : 10560,
            "byteOffset" : 85388
        },
        {
            "buffer" : 0,
            "byteLength" : 10560,
            "byteOffset" : 95948
        },
        {
            "buffer" : 0,
            "byteLength" : 7040,
            "byteOffset" : 106508
        },
        {
            "buffer" : 0,
            "byteLength" : 2844,
            "byteOffset" : 113548
        },
        {
            "buffer" : 0,
            "byteLength" : 39312,
            "byteOffset" : 116392
        },
        {
            "buffer" : 0,
            "byteLength" : 39312,
            "byteOffset" : 155704
        },
        {
            "buffer" : 0,
            "byteLength" : 26208,
            "byteOffset" : 195016
        },
        {
            "buffer" : 0,
            "byteLength" : 10032,
            "byteOffset" : 221224
        },
        {
            "buffer" : 0,
            "byteLength" : 3840,
            "byteOffset" : 231256
        },
        {
            "buffer" : 0,
            "byteLength" : 3840,
            "byteOffset" : 235096
        },
        {
            "buffer" : 0,
            "byteLength" : 2560,
            "byteOffset" : 238936
        },
        {
            "buffer" : 0,
            "byteLength" : 960,
            "byteOffset" : 241496
        },
        {
            "buffer" : 0,
            "byteLength" : 60,
            "byteOffset" : 242456
        },
        {
            "buffer" : 0,
            "byteLength" : 180,
            "byteOffset" : 242516
        },
        {
            "buffer" : 0,
            "byteLength" : 240,
            "byteOffset" : 242696
        },
        {
            "buffer" : 0,
            "byteLength" : 180,
            "byteOffset" : 242936
        }
    ],
    "buffers" : [
        {
            "byteLength" : 243116,
            "uri" : "data:application/octet-stream;base64,"
        }
    ]
}
