{
    "asset" : {
        "generator" : "Khronos glTF Blender I/O v1.5.17",
        "version" : "2.0"
    },
    "scene" : 0,
    "scenes" : [
        {
            "name" : "Scene",
            "nodes" : [
                0,
                1,
                2,
                3,
                4,
                5,
                6,
                7,
                8,
                9,
                10
            ]
        }
    ],
    "nodes" : [
        {
            "mesh" : 0,
            "name" : "Cube",
            "scale" : [
                0.23950126767158508,
                0.13617949187755585,
                0.15557923913002014
            ],
            "translation" : [
                0,
                -0.20047669112682343,
                -1.2335119247436523
            ]
        },
        {
            "name" : "Light",
            "rotation" : [
                0.16907575726509094,
                0.7558803558349609,
                -0.27217137813568115,
                0.570947527885437
            ],
            "translation" : [
                4.076245307922363,
                5.903861999511719,
                -1.0054539442062378
            ]
        },
        {
            "name" : "Camera",
            "rotation" : [
                0.483536034822464,
                0.33687159419059753,
                -0.20870360732078552,
                0.7804827094078064
            ],
            "translation" : [
                7.358891487121582,
                4.958309173583984,
                6.925790786743164
            ]
        },
        {
            "mesh" : 1,
            "name" : "Cylinder.002",
            "rotation" : [
                0,
                0.7071068286895752,
                0.7071068286895752,
                -2.3040468022372806e-07
            ],
            "scale" : [
                0.14680127799510956,
                1.2530295848846436,
                0.15087494254112244
            ],
            "translation" : [
                0.006614415906369686,
                -0.3705200254917145,
                -0.6051389575004578
            ]
        },
        {
            "mesh" : 2,
            "name" : "Cylinder.003",
            "rotation" : [
                0,
                0.7071068286895752,
                0.7071068286895752,
                -1.461109633282831e-07
            ],
            "scale" : [
                0.14680127799510956,
                1.2530295848846436,
                0.15087494254112244
            ]
        },
        {
            "name" : "Empty",
            "rotation" : [
                0.49485355615615845,
                -0.5054473280906677,
                0.4993448853492737,
                0.5002975463867188
            ],
            "translation" : [
                2.4350035190582275,
                -0.6994709968566895,
                1.006317138671875
            ]
        },
        {
            "mesh" : 3,
            "name" : "Cube.001",
            "scale" : [
                0.26503288745880127,
                0.22113563120365143,
                0.26503288745880127
            ],
            "translation" : [
                0,
                -0.31004196405410767,
                -1.7250982522964478
            ]
        },
        {
            "mesh" : 4,
            "name" : "Cube.002",
            "rotation" : [
                -0.08791441470384598,
                0,
                0,
                0.9961280226707458
            ],
            "scale" : [
                0.053031064569950104,
                0.04441612958908081,
                0.34496593475341797
            ],
            "translation" : [
                0,
                -0.06830824911594391,
                -1.5170891284942627
            ]
        },
        {
            "mesh" : 5,
            "name" : "Cube.003",
            "rotation" : [
                0.33848461508750916,
                0,
                0,
                0.9409720301628113
            ],
            "scale" : [
                0.03883209079504013,
                0.18162095546722412,
                0.048509757965803146
            ],
            "translation" : [
                0,
                -0.7702451944351196,
                -2.1664319038391113
            ]
        },
        {
            "mesh" : 6,
            "name" : "Cube.004",
            "scale" : [
                0.016120845451951027,
                0.1191769540309906,
                0.03516748547554016
            ],
            "translation" : [
                0,
                -0.7093625068664551,
                -1.835763692855835
            ]
        },
        {
            "name" : "Sun",
            "rotation" : [
                0.1137102022767067,
                0,
                0.6443188190460205,
                0.7562560439109802
            ],
            "translation" : [
                -2.607020378112793,
                -0.05694352090358734,
                0.07249200344085693
            ]
        }
    ],
    "animations" : [
        {
            "channels" : [
                {
                    "sampler" : 0,
                    "target" : {
                        "node" : 3,
                        "path" : "translation"
                    }
                },
                {
                    "sampler" : 1,
                    "target" : {
                        "node" : 3,
                        "path" : "rotation"
                    }
                },
                {
                    "sampler" : 2,
                    "target" : {
                        "node" : 3,
                        "path" : "scale"
                    }
                }
            ],
            "name" : "Animation",
            "samplers" : [
                {
                    "input" : 32,
                    "interpolation" : "LINEAR",
                    "output" : 33
                },
                {
                    "input" : 32,
                    "interpolation" : "LINEAR",
                    "output" : 34
                },
                {
                    "input" : 32,
                    "interpolation" : "LINEAR",
                    "output" : 35
                }
            ]
        }
    ],
    "materials" : [
        {
            "doubleSided" : true,
            "name" : "iron",
            "pbrMetallicRoughness" : {
                "baseColorFactor" : [
                    0.09850428998470306,
                    0.09850428998470306,
                    0.09850428998470306,
                    1
                ],
                "metallicFactor" : 0,
                "roughnessFactor" : 0.2647058963775635
            }
        },
        {
            "doubleSided" : true,
            "name" : "white",
            "pbrMetallicRoughness" : {
                "baseColorFactor" : [
                    0.5488504767417908,
                    0.5488504767417908,
                    0.5488504767417908,
                    1
                ],
                "metallicFactor" : 0,
                "roughnessFactor" : 0.5
            }
        }
    ],
    "meshes" : [
        {
            "name" : "Cube",
            "primitives" : [
                {
                    "attributes" : {
                        "POSITION" : 0,
                        "NORMAL" : 1,
                        "TEXCOORD_0" : 2
                    },
                    "indices" : 3,
                    "material" : 0
                }
            ]
        },
        {
            "name" : "Cylinder.002",
            "primitives" : [
                {
                    "attributes" : {
                        "POSITION" : 4,
                        "NORMAL" : 5,
                        "TEXCOORD_0" : 6
                    },
                    "indices" : 7,
                    "material" : 0
                },
                {
                    "attributes" : {
                        "POSITION" : 8,
                        "NORMAL" : 9,
                        "TEXCOORD_0" : 10
                    },
                    "indices" : 11,
                    "material" : 1
                }
            ]
        },
        {
            "name" : "Cylinder.003",
            "primitives" : [
                {
                    "attributes" : {
                        "POSITION" : 12,
                        "NORMAL" : 13,
                        "TEXCOORD_0" : 14
                    },
                    "indices" : 15,
                    "material" : 0
                }
            ]
        },
        {
            "name" : "Cube.002",
            "primitives" : [
                {
                    "attributes" : {
                        "POSITION" : 16,
                        "NORMAL" : 17,
                        "TEXCOORD_0" : 18
                    },
                    "indices" : 19,
                    "material" : 1
                }
            ]
        },
        {
            "name" : "Cube.001",
            "primitives" : [
                {
                    "attributes" : {
                        "POSITION" : 20,
                        "NORMAL" : 21,
                        "TEXCOORD_0" : 22
                    },
                    "indices" : 23,
                    "material" : 0
                }
            ]
        },
        {
            "name" : "Cube.003",
            "primitives" : [
                {
                    "attributes" : {
                        "POSITION" : 24,
                        "NORMAL" : 25,
                        "TEXCOORD_0" : 26
                    },
                    "indices" : 27,
                    "material" : 0
                }
            ]
        },
        {
            "name" : "Cube.004",
            "primitives" : [
                {
                    "attributes" : {
                        "POSITION" : 28,
                        "NORMAL" : 29,
                        "TEXCOORD_0" : 30
                    },
                    "indices" : 31,
                    "material" : 0
                }
            ]
        }
    ],
    "accessors" : [
        {
            "bufferView" : 0,
            "componentType" : 5126,
            "count" : 4102,
            "max" : [
                1.1830408573150635,
                1.1352849006652832,
                4.635205268859863
            ],
            "min" : [
                -1.1830408573150635,
                -2.446648359298706,
                -1.5040637254714966
            ],
            "type" : "VEC3"
        },
        {
            "bufferView" : 1,
            "componentType" : 5126,
            "count" : 4102,
            "type" : "VEC3"
        },
        {
            "bufferView" : 2,
            "componentType" : 5126,
            "count" : 4102,
            "type" : "VEC2"
        },
        {
            "bufferView" : 3,
            "componentType" : 5123,
            "count" : 6702,
            "type" : "SCALAR"
        },
        {
            "bufferView" : 4,
            "componentType" : 5126,
            "count" : 2634,
            "max" : [
                1.8442705869674683,
                1.8833767175674438,
                3.0622899532318115
            ],
            "min" : [
                -1.8442705869674683,
                -0.15557816624641418,
                0.7526226043701172
            ],
            "type" : "VEC3"
        },
        {
            "bufferView" : 5,
            "componentType" : 5126,
            "count" : 2634,
            "type" : "VEC3"
        },
        {
            "bufferView" : 6,
            "componentType" : 5126,
            "count" : 2634,
            "type" : "VEC2"
        },
        {
            "bufferView" : 7,
            "componentType" : 5123,
            "count" : 4146,
            "type" : "SCALAR"
        },
        {
            "bufferView" : 8,
            "componentType" : 5126,
            "count" : 440,
            "max" : [
                1.6845834255218506,
                1.5193930864334106,
                1.1939436197280884
            ],
            "min" : [
                -1.6845834255218506,
                4.241445367370034e-06,
                -0.5854978561401367
            ],
            "type" : "VEC3"
        },
        {
            "bufferView" : 9,
            "componentType" : 5126,
            "count" : 440,
            "type" : "VEC3"
        },
        {
            "bufferView" : 10,
            "componentType" : 5126,
            "count" : 440,
            "type" : "VEC2"
        },
        {
            "bufferView" : 11,
            "componentType" : 5123,
            "count" : 828,
            "type" : "SCALAR"
        },
        {
            "bufferView" : 12,
            "componentType" : 5126,
            "count" : 41088,
            "max" : [
                1.8570696115493774,
                -0.6419909000396729,
                0.6042077541351318
            ],
            "min" : [
                -1.8570696115493774,
                -0.9995368719100952,
                -1.3586348295211792
            ],
            "type" : "VEC3"
        },
        {
            "bufferView" : 13,
            "componentType" : 5126,
            "count" : 41088,
            "type" : "VEC3"
        },
        {
            "bufferView" : 14,
            "componentType" : 5126,
            "count" : 41088,
            "type" : "VEC2"
        },
        {
            "bufferView" : 15,
            "componentType" : 5123,
            "count" : 61800,
            "type" : "SCALAR"
        },
        {
            "bufferView" : 16,
            "componentType" : 5126,
            "count" : 11776,
            "max" : [
                0.9166668653488159,
                0.9082486629486084,
                1.0009244680404663
            ],
            "min" : [
                -0.9166668653488159,
                -5.116423606872559,
                -3.4118871688842773
            ],
            "type" : "VEC3"
        },
        {
            "bufferView" : 17,
            "componentType" : 5126,
            "count" : 11776,
            "type" : "VEC3"
        },
        {
            "bufferView" : 18,
            "componentType" : 5126,
            "count" : 11776,
            "type" : "VEC2"
        },
        {
            "bufferView" : 19,
            "componentType" : 5123,
            "count" : 17664,
            "type" : "SCALAR"
        },
        {
            "bufferView" : 20,
            "componentType" : 5126,
            "count" : 297,
            "max" : [
                0.8009881973266602,
                0.8343804478645325,
                1.6266180276870728
            ],
            "min" : [
                -0.8009882569313049,
                -2.1482014656066895,
                -0.9005926847457886
            ],
            "type" : "VEC3"
        },
        {
            "bufferView" : 21,
            "componentType" : 5126,
            "count" : 297,
            "type" : "VEC3"
        },
        {
            "bufferView" : 22,
            "componentType" : 5126,
            "count" : 297,
            "type" : "VEC2"
        },
        {
            "bufferView" : 23,
            "componentType" : 5123,
            "count" : 480,
            "type" : "SCALAR"
        },
        {
            "bufferView" : 24,
            "componentType" : 5126,
            "count" : 12800,
            "max" : [
                0.723360538482666,
                3.5477755069732666,
                13.073524475097656
            ],
            "min" : [
                -0.723360538482666,
                -0.9240717887878418,
                -0.9166676998138428
            ],
            "type" : "VEC3"
        },
        {
            "bufferView" : 25,
            "componentType" : 5126,
            "count" : 12800,
            "type" : "VEC3"
        },
        {
            "bufferView" : 26,
            "componentType" : 5126,
            "count" : 12800,
            "type" : "VEC2"
        },
        {
            "bufferView" : 27,
            "componentType" : 5123,
            "count" : 19200,
            "type" : "SCALAR"
        },
        {
            "bufferView" : 28,
            "componentType" : 5126,
            "count" : 3584,
            "max" : [
                0.9166668057441711,
                0.965639054775238,
                1.6430233716964722
            ],
            "min" : [
                -0.9166668057441711,
                -1.2308762073516846,
                -0.9427366256713867
            ],
            "type" : "VEC3"
        },
        {
            "bufferView" : 29,
            "componentType" : 5126,
            "count" : 3584,
            "type" : "VEC3"
        },
        {
            "bufferView" : 30,
            "componentType" : 5126,
            "count" : 3584,
            "type" : "VEC2"
        },
        {
            "bufferView" : 31,
            "componentType" : 5123,
            "count" : 5376,
            "type" : "SCALAR"
        },
        {
            "bufferView" : 32,
            "componentType" : 5126,
            "count" : 19,
            "max" : [
                0.7916666666666666
            ],
            "min" : [
                0.041666666666666664
            ],
            "type" : "SCALAR"
        },
        {
            "bufferView" : 33,
            "componentType" : 5126,
            "count" : 19,
            "type" : "VEC3"
        },
        {
            "bufferView" : 34,
            "componentType" : 5126,
            "count" : 19,
            "type" : "VEC4"
        },
        {
            "bufferView" : 35,
            "componentType" : 5126,
            "count" : 19,
            "type" : "VEC3"
        }
    ],
    "bufferViews" : [
        {
            "buffer" : 0,
            "byteLength" : 49224,
            "byteOffset" : 0
        },
        {
            "buffer" : 0,
            "byteLength" : 49224,
            "byteOffset" : 49224
        },
        {
            "buffer" : 0,
            "byteLength" : 32816,
            "byteOffset" : 98448
        },
        {
            "buffer" : 0,
            "byteLength" : 13404,
            "byteOffset" : 131264
        },
        {
            "buffer" : 0,
            "byteLength" : 31608,
            "byteOffset" : 144668
        },
        {
            "buffer" : 0,
            "byteLength" : 31608,
            "byteOffset" : 176276
        },
        {
            "buffer" : 0,
            "byteLength" : 21072,
            "byteOffset" : 207884
        },
        {
            "buffer" : 0,
            "byteLength" : 8292,
            "byteOffset" : 228956
        },
        {
            "buffer" : 0,
            "byteLength" : 5280,
            "byteOffset" : 237248
        },
        {
            "buffer" : 0,
            "byteLength" : 5280,
            "byteOffset" : 242528
        },
        {
            "buffer" : 0,
            "byteLength" : 3520,
            "byteOffset" : 247808
        },
        {
            "buffer" : 0,
            "byteLength" : 1656,
            "byteOffset" : 251328
        },
        {
            "buffer" : 0,
            "byteLength" : 493056,
            "byteOffset" : 252984
        },
        {
            "buffer" : 0,
            "byteLength" : 493056,
            "byteOffset" : 746040
        },
        {
            "buffer" : 0,
            "byteLength" : 328704,
            "byteOffset" : 1239096
        },
        {
            "buffer" : 0,
            "byteLength" : 123600,
            "byteOffset" : 1567800
        },
        {
            "buffer" : 0,
            "byteLength" : 141312,
            "byteOffset" : 1691400
        },
        {
            "buffer" : 0,
            "byteLength" : 141312,
            "byteOffset" : 1832712
        },
        {
            "buffer" : 0,
            "byteLength" : 94208,
            "byteOffset" : 1974024
        },
        {
            "buffer" : 0,
            "byteLength" : 35328,
            "byteOffset" : 2068232
        },
        {
            "buffer" : 0,
            "byteLength" : 3564,
            "byteOffset" : 2103560
        },
        {
            "buffer" : 0,
            "byteLength" : 3564,
            "byteOffset" : 2107124
        },
        {
            "buffer" : 0,
            "byteLength" : 2376,
            "byteOffset" : 2110688
        },
        {
            "buffer" : 0,
            "byteLength" : 960,
            "byteOffset" : 2113064
        },
        {
            "buffer" : 0,
            "byteLength" : 153600,
            "byteOffset" : 2114024
        },
        {
            "buffer" : 0,
            "byteLength" : 153600,
            "byteOffset" : 2267624
        },
        {
            "buffer" : 0,
            "byteLength" : 102400,
            "byteOffset" : 2421224
        },
        {
            "buffer" : 0,
            "byteLength" : 38400,
            "byteOffset" : 2523624
        },
        {
            "buffer" : 0,
            "byteLength" : 43008,
            "byteOffset" : 2562024
        },
        {
            "buffer" : 0,
            "byteLength" : 43008,
            "byteOffset" : 2605032
        },
        {
            "buffer" : 0,
            "byteLength" : 28672,
            "byteOffset" : 2648040
        },
        {
            "buffer" : 0,
            "byteLength" : 10752,
            "byteOffset" : 2676712
        },
        {
            "buffer" : 0,
            "byteLength" : 76,
            "byteOffset" : 2687464
        },
        {
            "buffer" : 0,
            "byteLength" : 228,
            "byteOffset" : 2687540
        },
        {
            "buffer" : 0,
            "byteLength" : 304,
            "byteOffset" : 2687768
        },
        {
            "buffer" : 0,
            "byteLength" : 228,
            "byteOffset" : 2688072
        }
    ],
    "buffers" : [
        {
            "byteLength" : 2688300,
            "uri" : "data:application/octet-stream;base64,"
        }
    ]
}
